<?xml version="1.0" encoding="utf-8"?>
<!-- Generator: Adobe Illustrator 25.3.1, SVG Export Plug-In . SVG Version: 6.00 Build 0)  -->
<svg version="1.1" id="Layer_1" xmlns="http://www.w3.org/2000/svg" xmlns:xlink="http://www.w3.org/1999/xlink" x="0px" y="0px"
	 width="199.1px" height="111.5px" viewBox="0 0 199.1 111.5" style="enable-background:new 0 0 199.1 111.5;" xml:space="preserve"
	>
<style type="text/css">
	.st0{fill:#BFD730;}
	.st1{fill-rule:evenodd;clip-rule:evenodd;fill:#ED1D24;}
	.st2{fill-rule:evenodd;clip-rule:evenodd;fill:#72BF44;}
	.st3{fill-rule:evenodd;clip-rule:evenodd;fill:#BA131A;}
	.st4{fill-rule:evenodd;clip-rule:evenodd;fill:#FFFFFF;}
	.st5{fill:#FFFFFF;}
</style>
<g>
	<path class="st0" d="M23.8,111.5V31.9H0V0h103.5v111.5l-6-19.9H61.7l-6,19.9H23.8z M71.2,59.7h16.7l-8.4-27.9L71.2,59.7z"/>
	<path class="st1" d="M103.5,0h55.8c22,0,39.8,17.8,39.8,39.8c0,22-17.8,39.8-39.8,39.8h-23.9v31.9h-31.9V0z M135.3,31.9h23.9
		c4.4,0,8,3.6,8,8c0,4.4-3.6,8-8,8h-23.9V31.9z"/>
	<polygon class="st2" points="23.8,111.5 55.7,111.5 55.7,31.9 79.6,31.9 79.6,0 55.7,0 	"/>
	<polygon class="st3" points="103.5,111.5 135.3,111.5 103.5,0 	"/>
	<path class="st4" d="M115.4,78.3c-0.1-0.3-0.1-0.8-0.1-1.5c0-1.5,0.6-2.7,2.1-2.7c1.4,0,2.2,1.1,2.2,2.9c0,0.5,0,1-0.1,1.3H115.4z
		 M124.7,79.7v-1.4h-4.2c0.1-0.4,0.1-0.8,0.1-1.3c0-1.5-0.4-2.7-1.1-3.4c-0.5-0.6-1.3-0.9-2.3-0.9c-0.9,0-1.7,0.4-2.2,1
		c-0.6,0.7-0.9,1.7-0.9,3.1c0,1.2,0.1,2.2,0.2,2.9H124.7z"/>
	<path class="st4" d="M123.8,66.3c0,2.4-2,3.9-4.2,3.9c-2.3,0-4.4-1.4-4.4-3.9c0-2.6,2.1-3.9,4.3-3.9
		C121.9,62.4,123.8,63.9,123.8,66.3L123.8,66.3z M124.9,66.4c0-3-2.1-5.5-5.5-5.5c-3,0-5.3,2.1-5.3,5.3c0,3.1,2.3,5.4,5.6,5.4
		C122.7,71.7,124.9,69.5,124.9,66.4L124.9,66.4z"/>
	<path class="st4" d="M115.4,58.4c-0.1-0.3-0.1-0.8-0.1-1.6c0-1.5,0.5-2.6,1.9-2.6c1.2,0,2,1,2,2.5v1.7H115.4z M124.7,59.8v-1.4
		h-4.5v-1.6c0.1-1.3,0.6-1.9,2.1-2.2c1.3-0.3,2.2-0.6,2.5-0.7v-1.5c-0.4,0.2-1.5,0.5-3,0.9c-1,0.3-1.7,0.8-2,1.6h0
		c-0.3-1.1-1.3-2.1-2.7-2.1c-0.8,0-1.5,0.3-2,0.9c-0.6,0.7-0.9,1.7-0.9,3.3c0,1,0.1,2.1,0.2,2.9H124.7z"/>
	<polygon class="st4" points="124.7,48.5 124.7,47.1 115.4,47.1 115.4,43.5 114.2,43.5 114.2,52.1 115.4,52.1 115.4,48.5 	"/>
	<path class="st4" d="M114.2,42.6h5.9c3.5,0,4.8-1.8,4.8-4.1c0-2.5-1.4-4.4-4.8-4.4h-5.9v1.4h5.9c2.5,0,3.6,1.1,3.6,2.9
		c0,1.6-1.1,2.8-3.6,2.8h-5.9V42.6z"/>
	<path class="st4" d="M119.2,23.1v3.8h1.1v-2.4h3c0.2,0.4,0.3,1.1,0.3,2.2c0,2.8-1.7,4.6-4.2,4.6c-2.4,0-4.2-1.8-4.2-4.7
		c0-1.2,0.2-2,0.5-2.7l-1.1-0.4c-0.2,0.5-0.5,1.6-0.5,3c0,4.1,2.6,6.2,5.4,6.2c1.5,0,2.9-0.6,3.8-1.5c1.1-1.1,1.5-2.6,1.5-4.4
		c0-1.7-0.4-3-0.6-3.7H119.2z"/>
	<path class="st4" d="M120.3,19.2l-3.2-1.2c-0.6-0.2-1.2-0.4-1.7-0.6v0c0.5-0.2,1.1-0.3,1.8-0.6l3.1-1.2V19.2z M121.4,15.4l3.3-1.3
		v-1.5l-10.5,4v1.7l10.5,4v-1.5l-3.3-1.2V15.4z"/>
	<polygon class="st4" points="124.7,11.7 124.7,5.3 123.5,5.3 123.5,10.3 114.2,10.3 114.2,11.7 	"/>
	<rect x="114.2" y="92.8" class="st4" width="10.5" height="2"/>
	<path class="st4" d="M120.2,102.7l-2.7-0.9c-0.6-0.2-1.2-0.4-1.8-0.5v0c0.6-0.2,1.2-0.4,1.8-0.6l2.6-1V102.7z M121.7,99.3l3-1.1
		v-2.2l-10.5,3.8v2.6l10.5,3.7v-2.1l-3-1V99.3z"/>
	<path class="st5" d="M120.7,88.6v-1.3c0.1-1.2,0.5-1.7,1.8-2c1.2-0.3,1.8-0.5,2.1-0.6v-2.1c-0.5,0.2-1.3,0.4-2.5,0.7l-0.2,0.1
		c-0.9,0.2-1.6,0.7-2,1.2c-0.5-0.9-1.3-1.7-2.7-1.7c-0.9,0-1.7,0.3-2.2,0.9c-0.7,0.8-1,1.8-1,3.4c0,1,0.1,2.1,0.2,2.9l0,0.2h10.3v-2
		H120.7z M115.9,88.6c0-0.2-0.1-0.7-0.1-1.3c0-1.1,0.3-2.3,1.7-2.3c1,0,1.7,0.9,1.7,2.2v1.4H115.9z"/>
</g>
</svg>
